<svg width="68" height="13" viewBox="0 0 68 13" fill="none" xmlns="http://www.w3.org/2000/svg">
<path d="M4.54193 2.39052H0.696777V0.202679H11.168V2.39052H7.32281V11.8049H4.54193V2.39052Z" fill="#292F42"/>
<path d="M20.342 9.3187H14.7631L13.6988 11.8049H10.8493L16.2051 0.202679H18.9516L24.3245 11.8049H21.4063L20.342 9.3187ZM19.4666 7.28003L17.5612 2.83804L15.6557 7.28003H19.4666Z" fill="#292F42"/>
<path d="M32.8889 11.8049L29.9879 7.77727L27.1384 11.8049H23.9455L28.3915 5.90434L24.1687 0.202679H27.3272L30.0909 3.96511L32.8031 0.202679H35.8071L31.6187 5.80489L36.0989 11.8049H32.8889Z" fill="#292F42"/>
<path d="M45.6244 5.82147H48.1649V10.5286C47.5126 11.0038 46.7573 11.3684 45.899 11.6226C45.0407 11.8767 44.1767 12.0038 43.307 12.0038C42.0596 12.0038 40.9381 11.7496 39.9425 11.2414C38.9469 10.722 38.1629 10.0093 37.5908 9.10324C37.03 8.18611 36.7496 7.15296 36.7496 6.00379C36.7496 4.85461 37.03 3.82699 37.5908 2.92091C38.1629 2.00379 38.9526 1.29108 39.9596 0.78279C40.9667 0.263453 42.0997 0.00378418 43.3585 0.00378418C44.4113 0.00378418 45.3669 0.175055 46.2252 0.517596C47.0835 0.860138 47.8045 1.35738 48.3881 2.00931L46.6028 3.60047C45.7445 2.72754 44.7089 2.29108 43.4958 2.29108C42.7291 2.29108 42.0482 2.44577 41.4531 2.75517C40.858 3.06456 40.3945 3.50102 40.0626 4.06456C39.7308 4.6281 39.5648 5.2745 39.5648 6.00379C39.5648 6.72202 39.7308 7.3629 40.0626 7.92644C40.3945 8.48997 40.8523 8.93196 41.4359 9.25241C42.031 9.5618 42.7062 9.71649 43.4615 9.71649C44.2626 9.71649 44.9835 9.55075 45.6244 9.21926V5.82147Z" fill="#292F42"/>
<path d="M51.116 0.202679H53.8968V11.8049H51.116V0.202679Z" fill="#292F42"/>
<path d="M65.2358 5.82147H67.7764V10.5286C67.1241 11.0038 66.3688 11.3684 65.5105 11.6226C64.6522 11.8767 63.7882 12.0038 62.9184 12.0038C61.671 12.0038 60.5495 11.7496 59.5539 11.2414C58.5583 10.722 57.7744 10.0093 57.2022 9.10324C56.6414 8.18611 56.3611 7.15296 56.3611 6.00379C56.3611 4.85461 56.6414 3.82699 57.2022 2.92091C57.7744 2.00379 58.564 1.29108 59.5711 0.78279C60.5781 0.263453 61.7111 0.00378418 62.9699 0.00378418C64.0228 0.00378418 64.9783 0.175055 65.8366 0.517596C66.6949 0.860138 67.4159 1.35738 67.9995 2.00931L66.2143 3.60047C65.356 2.72754 64.3203 2.29108 63.1072 2.29108C62.3405 2.29108 61.6596 2.44577 61.0645 2.75517C60.4694 3.06456 60.006 3.50102 59.6741 4.06456C59.3422 4.6281 59.1763 5.2745 59.1763 6.00379C59.1763 6.72202 59.3422 7.3629 59.6741 7.92644C60.006 8.48997 60.4637 8.93196 61.0473 9.25241C61.6424 9.5618 62.3176 9.71649 63.0729 9.71649C63.874 9.71649 64.595 9.55075 65.2358 9.21926V5.82147Z" fill="#292F42"/>
</svg>
